<svg width="224" height="26" viewBox="0 0 224 26" fill="none" xmlns="http://www.w3.org/2000/svg">
<path d="M8.27273 25H0.0227273V1.72727H8.34091C10.6818 1.72727 12.697 2.19318 14.3864 3.125C16.0758 4.04924 17.375 5.37879 18.2841 7.11364C19.2008 8.84848 19.6591 10.9242 19.6591 13.3409C19.6591 15.7652 19.2008 17.8485 18.2841 19.5909C17.375 21.3333 16.0682 22.6705 14.3636 23.6023C12.6667 24.5341 10.6364 25 8.27273 25ZM4.94318 20.7841H8.06818C9.52273 20.7841 10.7462 20.5265 11.7386 20.0114C12.7386 19.4886 13.4886 18.6818 13.9886 17.5909C14.4962 16.4924 14.75 15.0758 14.75 13.3409C14.75 11.6212 14.4962 10.2159 13.9886 9.125C13.4886 8.03409 12.7424 7.23106 11.75 6.71591C10.7576 6.20076 9.53409 5.94318 8.07955 5.94318H4.94318V20.7841ZM31.1676 25.3409C29.3722 25.3409 27.8267 24.9773 26.5312 24.25C25.2434 23.5152 24.2509 22.4773 23.554 21.1364C22.857 19.7879 22.5085 18.1932 22.5085 16.3523C22.5085 14.5568 22.857 12.9811 23.554 11.625C24.2509 10.2689 25.232 9.21212 26.4972 8.45454C27.7699 7.69697 29.2623 7.31818 30.9744 7.31818C32.1259 7.31818 33.1979 7.50379 34.1903 7.875C35.1903 8.23864 36.0616 8.78788 36.804 9.52273C37.554 10.2576 38.1373 11.1818 38.554 12.2955C38.9706 13.4015 39.179 14.697 39.179 16.1818V17.5114H24.4403V14.5114H34.6222C34.6222 13.8144 34.4706 13.197 34.1676 12.6591C33.8646 12.1212 33.4441 11.7008 32.9062 11.3977C32.3759 11.0871 31.7585 10.9318 31.054 10.9318C30.3191 10.9318 29.6676 11.1023 29.0994 11.4432C28.5388 11.7765 28.0994 12.2273 27.7812 12.7955C27.4631 13.3561 27.3002 13.9811 27.2926 14.6705V17.5227C27.2926 18.3864 27.4517 19.1326 27.7699 19.7614C28.0956 20.3902 28.554 20.875 29.1449 21.2159C29.7358 21.5568 30.4366 21.7273 31.2472 21.7273C31.785 21.7273 32.2775 21.6515 32.7244 21.5C33.1714 21.3485 33.554 21.1212 33.8722 20.8182C34.1903 20.5152 34.4328 20.1439 34.5994 19.7045L39.0767 20C38.8494 21.0758 38.3835 22.0152 37.679 22.8182C36.982 23.6136 36.0805 24.2348 34.9744 24.6818C33.8759 25.1212 32.607 25.3409 31.1676 25.3409ZM47.179 14.9091V25H42.3381V7.54545H46.9517V10.625H47.1562C47.5426 9.60985 48.1903 8.80682 49.0994 8.21591C50.0085 7.61742 51.1108 7.31818 52.4062 7.31818C53.6184 7.31818 54.6752 7.58333 55.5767 8.11364C56.4782 8.64394 57.179 9.40151 57.679 10.3864C58.179 11.3636 58.429 12.5303 58.429 13.8864V25H53.5881V14.75C53.5956 13.6818 53.3229 12.8485 52.7699 12.25C52.2169 11.6439 51.4555 11.3409 50.4858 11.3409C49.8343 11.3409 49.2585 11.4811 48.7585 11.7614C48.2661 12.0417 47.8797 12.4508 47.5994 12.9886C47.3267 13.5189 47.1866 14.1591 47.179 14.9091ZM62.2443 25V7.54545H67.0852V25H62.2443ZM64.6761 5.29545C63.9564 5.29545 63.339 5.05682 62.8239 4.57954C62.3163 4.0947 62.0625 3.51515 62.0625 2.84091C62.0625 2.17424 62.3163 1.60227 62.8239 1.125C63.339 0.640151 63.9564 0.397726 64.6761 0.397726C65.3958 0.397726 66.0095 0.640151 66.517 1.125C67.0322 1.60227 67.2898 2.17424 67.2898 2.84091C67.2898 3.51515 67.0322 4.0947 66.517 4.57954C66.0095 5.05682 65.3958 5.29545 64.6761 5.29545ZM85.4858 12.5227L81.054 12.7955C80.9782 12.4167 80.8153 12.0758 80.5653 11.7727C80.3153 11.4621 79.9858 11.2159 79.5767 11.0341C79.1752 10.8447 78.6941 10.75 78.1335 10.75C77.3835 10.75 76.7509 10.9091 76.2358 11.2273C75.7206 11.5379 75.4631 11.9545 75.4631 12.4773C75.4631 12.8939 75.6297 13.2462 75.9631 13.5341C76.2964 13.822 76.8684 14.053 77.679 14.2273L80.8381 14.8636C82.535 15.2121 83.8002 15.7727 84.6335 16.5455C85.4669 17.3182 85.8835 18.3333 85.8835 19.5909C85.8835 20.7348 85.5464 21.7386 84.8722 22.6023C84.2055 23.4659 83.2888 24.1402 82.1222 24.625C80.9631 25.1023 79.6259 25.3409 78.1108 25.3409C75.8002 25.3409 73.9593 24.8598 72.5881 23.8977C71.2244 22.928 70.4252 21.6098 70.1903 19.9432L74.9517 19.6932C75.0956 20.3977 75.4441 20.9356 75.9972 21.3068C76.5502 21.6705 77.2585 21.8523 78.1222 21.8523C78.9706 21.8523 79.6525 21.6894 80.1676 21.3636C80.6903 21.0303 80.9555 20.6023 80.9631 20.0795C80.9555 19.6402 80.7699 19.2803 80.4062 19C80.0426 18.7121 79.482 18.4924 78.7244 18.3409L75.7017 17.7386C73.9972 17.3977 72.7282 16.8068 71.8949 15.9659C71.0691 15.125 70.6562 14.053 70.6562 12.75C70.6562 11.6288 70.9593 10.6629 71.5653 9.85227C72.179 9.04167 73.0388 8.41667 74.1449 7.97727C75.2585 7.53788 76.5616 7.31818 78.054 7.31818C80.2585 7.31818 81.9934 7.78409 83.2585 8.71591C84.5313 9.64773 85.2737 10.9167 85.4858 12.5227ZM96.429 25V1.72727H111.838V5.78409H101.349V11.3295H110.815V15.3864H101.349V25H96.429ZM121.662 25.3409C119.897 25.3409 118.37 24.9659 117.082 24.2159C115.802 23.4583 114.813 22.4053 114.116 21.0568C113.42 19.7008 113.071 18.1288 113.071 16.3409C113.071 14.5379 113.42 12.9621 114.116 11.6136C114.813 10.2576 115.802 9.20454 117.082 8.45454C118.37 7.69697 119.897 7.31818 121.662 7.31818C123.427 7.31818 124.95 7.69697 126.23 8.45454C127.518 9.20454 128.51 10.2576 129.207 11.6136C129.904 12.9621 130.253 14.5379 130.253 16.3409C130.253 18.1288 129.904 19.7008 129.207 21.0568C128.51 22.4053 127.518 23.4583 126.23 24.2159C124.95 24.9659 123.427 25.3409 121.662 25.3409ZM121.685 21.5909C122.488 21.5909 123.158 21.3636 123.696 20.9091C124.234 20.447 124.639 19.8182 124.912 19.0227C125.192 18.2273 125.332 17.322 125.332 16.3068C125.332 15.2917 125.192 14.3864 124.912 13.5909C124.639 12.7955 124.234 12.1667 123.696 11.7045C123.158 11.2424 122.488 11.0114 121.685 11.0114C120.874 11.0114 120.192 11.2424 119.639 11.7045C119.094 12.1667 118.681 12.7955 118.401 13.5909C118.128 14.3864 117.991 15.2917 117.991 16.3068C117.991 17.322 118.128 18.2273 118.401 19.0227C118.681 19.8182 119.094 20.447 119.639 20.9091C120.192 21.3636 120.874 21.5909 121.685 21.5909ZM138.241 14.9091V25H133.401V7.54545H138.014V10.625H138.219C138.605 9.60985 139.253 8.80682 140.162 8.21591C141.071 7.61742 142.173 7.31818 143.469 7.31818C144.681 7.31818 145.738 7.58333 146.639 8.11364C147.541 8.64394 148.241 9.40151 148.741 10.3864C149.241 11.3636 149.491 12.5303 149.491 13.8864V25H144.651V14.75C144.658 13.6818 144.385 12.8485 143.832 12.25C143.279 11.6439 142.518 11.3409 141.548 11.3409C140.897 11.3409 140.321 11.4811 139.821 11.7614C139.329 12.0417 138.942 12.4508 138.662 12.9886C138.389 13.5189 138.249 14.1591 138.241 14.9091ZM167.83 12.5227L163.398 12.7955C163.322 12.4167 163.159 12.0758 162.909 11.7727C162.659 11.4621 162.33 11.2159 161.92 11.0341C161.519 10.8447 161.038 10.75 160.477 10.75C159.727 10.75 159.095 10.9091 158.58 11.2273C158.064 11.5379 157.807 11.9545 157.807 12.4773C157.807 12.8939 157.973 13.2462 158.307 13.5341C158.64 13.822 159.212 14.053 160.023 14.2273L163.182 14.8636C164.879 15.2121 166.144 15.7727 166.977 16.5455C167.811 17.3182 168.227 18.3333 168.227 19.5909C168.227 20.7348 167.89 21.7386 167.216 22.6023C166.549 23.4659 165.633 24.1402 164.466 24.625C163.307 25.1023 161.97 25.3409 160.455 25.3409C158.144 25.3409 156.303 24.8598 154.932 23.8977C153.568 22.928 152.769 21.6098 152.534 19.9432L157.295 19.6932C157.439 20.3977 157.788 20.9356 158.341 21.3068C158.894 21.6705 159.602 21.8523 160.466 21.8523C161.314 21.8523 161.996 21.6894 162.511 21.3636C163.034 21.0303 163.299 20.6023 163.307 20.0795C163.299 19.6402 163.114 19.2803 162.75 19C162.386 18.7121 161.826 18.4924 161.068 18.3409L158.045 17.7386C156.341 17.3977 155.072 16.8068 154.239 15.9659C153.413 15.125 153 14.053 153 12.75C153 11.6288 153.303 10.6629 153.909 9.85227C154.523 9.04167 155.383 8.41667 156.489 7.97727C157.602 7.53788 158.905 7.31818 160.398 7.31818C162.602 7.31818 164.337 7.78409 165.602 8.71591C166.875 9.64773 167.617 10.9167 167.83 12.5227ZM179.23 25.3409C177.435 25.3409 175.889 24.9773 174.594 24.25C173.306 23.5152 172.313 22.4773 171.616 21.1364C170.92 19.7879 170.571 18.1932 170.571 16.3523C170.571 14.5568 170.92 12.9811 171.616 11.625C172.313 10.2689 173.295 9.21212 174.56 8.45454C175.832 7.69697 177.325 7.31818 179.037 7.31818C180.188 7.31818 181.26 7.50379 182.253 7.875C183.253 8.23864 184.124 8.78788 184.866 9.52273C185.616 10.2576 186.2 11.1818 186.616 12.2955C187.033 13.4015 187.241 14.697 187.241 16.1818V17.5114H172.503V14.5114H182.685C182.685 13.8144 182.533 13.197 182.23 12.6591C181.927 12.1212 181.507 11.7008 180.969 11.3977C180.438 11.0871 179.821 10.9318 179.116 10.9318C178.382 10.9318 177.73 11.1023 177.162 11.4432C176.601 11.7765 176.162 12.2273 175.844 12.7955C175.526 13.3561 175.363 13.9811 175.355 14.6705V17.5227C175.355 18.3864 175.514 19.1326 175.832 19.7614C176.158 20.3902 176.616 20.875 177.207 21.2159C177.798 21.5568 178.499 21.7273 179.31 21.7273C179.848 21.7273 180.34 21.6515 180.787 21.5C181.234 21.3485 181.616 21.1212 181.935 20.8182C182.253 20.5152 182.495 20.1439 182.662 19.7045L187.139 20C186.912 21.0758 186.446 22.0152 185.741 22.8182C185.045 23.6136 184.143 24.2348 183.037 24.6818C181.938 25.1212 180.67 25.3409 179.23 25.3409ZM198.287 25.3409C196.499 25.3409 194.961 24.9621 193.673 24.2045C192.393 23.4394 191.408 22.3788 190.719 21.0227C190.037 19.6667 189.696 18.1061 189.696 16.3409C189.696 14.553 190.041 12.9848 190.73 11.6364C191.427 10.2803 192.416 9.22348 193.696 8.46591C194.976 7.70076 196.499 7.31818 198.264 7.31818C199.787 7.31818 201.12 7.5947 202.264 8.14773C203.408 8.70076 204.313 9.47727 204.98 10.4773C205.647 11.4773 206.014 12.6515 206.082 14H201.514C201.385 13.1288 201.045 12.428 200.491 11.8977C199.946 11.3598 199.23 11.0909 198.344 11.0909C197.594 11.0909 196.938 11.2955 196.378 11.7045C195.825 12.1061 195.393 12.6932 195.082 13.4659C194.772 14.2386 194.616 15.1742 194.616 16.2727C194.616 17.3864 194.768 18.3333 195.071 19.1136C195.382 19.8939 195.817 20.4886 196.378 20.8977C196.938 21.3068 197.594 21.5114 198.344 21.5114C198.897 21.5114 199.393 21.3977 199.832 21.1705C200.279 20.9432 200.647 20.6136 200.935 20.1818C201.23 19.7424 201.423 19.2159 201.514 18.6023H206.082C206.007 19.9356 205.643 21.1098 204.991 22.125C204.348 23.1326 203.457 23.9205 202.321 24.4886C201.185 25.0568 199.84 25.3409 198.287 25.3409ZM214.159 25.3295C213.045 25.3295 212.053 25.1364 211.182 24.75C210.311 24.3561 209.621 23.7765 209.114 23.0114C208.614 22.2386 208.364 21.2765 208.364 20.125C208.364 19.1553 208.542 18.3409 208.898 17.6818C209.254 17.0227 209.739 16.4924 210.352 16.0909C210.966 15.6894 211.663 15.3864 212.443 15.1818C213.231 14.9773 214.057 14.8333 214.92 14.75C215.936 14.6439 216.754 14.5455 217.375 14.4545C217.996 14.3561 218.447 14.2121 218.727 14.0227C219.008 13.8333 219.148 13.553 219.148 13.1818V13.1136C219.148 12.3939 218.92 11.8371 218.466 11.4432C218.019 11.0492 217.383 10.8523 216.557 10.8523C215.686 10.8523 214.992 11.0455 214.477 11.4318C213.962 11.8106 213.621 12.2879 213.455 12.8636L208.977 12.5C209.205 11.4394 209.652 10.5227 210.318 9.75C210.985 8.9697 211.845 8.37121 212.898 7.95454C213.958 7.5303 215.186 7.31818 216.58 7.31818C217.549 7.31818 218.477 7.43182 219.364 7.65909C220.258 7.88636 221.049 8.23864 221.739 8.71591C222.436 9.19318 222.985 9.80682 223.386 10.5568C223.788 11.2992 223.989 12.1894 223.989 13.2273V25H219.398V22.5795H219.261C218.981 23.125 218.606 23.6061 218.136 24.0227C217.667 24.4318 217.102 24.7538 216.443 24.9886C215.784 25.2159 215.023 25.3295 214.159 25.3295ZM215.545 21.9886C216.258 21.9886 216.886 21.8485 217.432 21.5682C217.977 21.2803 218.405 20.8939 218.716 20.4091C219.027 19.9242 219.182 19.375 219.182 18.7614V16.9091C219.03 17.0076 218.822 17.0985 218.557 17.1818C218.299 17.2576 218.008 17.3295 217.682 17.3977C217.356 17.4583 217.03 17.5152 216.705 17.5682C216.379 17.6136 216.083 17.6553 215.818 17.6932C215.25 17.7765 214.754 17.9091 214.33 18.0909C213.905 18.2727 213.576 18.5189 213.341 18.8295C213.106 19.1326 212.989 19.5114 212.989 19.9659C212.989 20.625 213.227 21.1288 213.705 21.4773C214.189 21.8182 214.803 21.9886 215.545 21.9886Z" fill="black"/>
</svg>
