<svg width="33" height="33" viewBox="0 0 33 33" fill="none" xmlns="http://www.w3.org/2000/svg">
<path d="M16.5 20.625C17.7833 20.625 18.9406 20.3099 19.9719 19.6797C21.0031 19.0495 21.8167 18.2188 22.4125 17.1875C21.6104 16.5229 20.7052 16.013 19.6969 15.6578C18.6885 15.3026 17.6229 15.125 16.5 15.125C15.3771 15.125 14.3115 15.3026 13.3031 15.6578C12.2948 16.013 11.3896 16.5229 10.5875 17.1875C11.1833 18.2188 11.9969 19.0495 13.0281 19.6797C14.0594 20.3099 15.2167 20.625 16.5 20.625ZM16.5 13.75C17.2563 13.75 17.9036 13.4807 18.4422 12.9422C18.9807 12.4036 19.25 11.7563 19.25 11C19.25 10.2438 18.9807 9.59635 18.4422 9.05781C17.9036 8.51927 17.2563 8.25 16.5 8.25C15.7438 8.25 15.0964 8.51927 14.5578 9.05781C14.0193 9.59635 13.75 10.2438 13.75 11C13.75 11.7563 14.0193 12.4036 14.5578 12.9422C15.0964 13.4807 15.7438 13.75 16.5 13.75ZM16.5 26.6063C19.2958 24.0396 21.3698 21.7078 22.7219 19.6109C24.074 17.5141 24.75 15.6521 24.75 14.025C24.75 11.5271 23.9536 9.48177 22.3609 7.88906C20.7682 6.29635 18.8146 5.5 16.5 5.5C14.1854 5.5 12.2318 6.29635 10.6391 7.88906C9.04635 9.48177 8.25 11.5271 8.25 14.025C8.25 15.6521 8.92604 17.5141 10.2781 19.6109C11.6302 21.7078 13.7042 24.0396 16.5 26.6063ZM16.5 30.25C12.8104 27.1104 10.0547 24.1943 8.23281 21.5016C6.41094 18.8089 5.5 16.3167 5.5 14.025C5.5 10.5875 6.60573 7.84896 8.81719 5.80938C11.0286 3.76979 13.5896 2.75 16.5 2.75C19.4104 2.75 21.9714 3.76979 24.1828 5.80938C26.3943 7.84896 27.5 10.5875 27.5 14.025C27.5 16.3167 26.5891 18.8089 24.7672 21.5016C22.9453 24.1943 20.1896 27.1104 16.5 30.25Z" fill="#496E8F"/>
</svg>
