<svg width="1158" height="31" viewBox="0 0 1158 31" fill="none" xmlns="http://www.w3.org/2000/svg">
<path d="M7.288 5.05196C11.2 5.05196 14.332 5.93996 16.684 7.71596C19.06 9.46796 20.248 12.696 20.248 17.4C20.248 22.032 19.096 25.296 16.792 27.192C14.488 29.064 11.5 30 7.828 30H0.339996V5.05196H7.288ZM6.244 9.33596V25.716H8.188C10.132 25.716 11.608 25.116 12.616 23.916C13.624 22.692 14.128 20.52 14.128 17.4C14.128 15.264 13.876 13.608 13.372 12.432C12.868 11.256 12.184 10.452 11.32 10.02C10.456 9.56396 9.388 9.33596 8.116 9.33596H6.244Z" fill="#001426"/>
<path d="M40.3492 20.064C40.3492 20.856 40.3132 21.54 40.2412 22.116H28.3972C28.5892 23.724 29.0452 24.852 29.7652 25.5C30.4852 26.148 31.4812 26.472 32.7532 26.472C33.5212 26.472 34.2652 26.34 34.9852 26.076C35.7052 25.788 36.4852 25.356 37.3252 24.78L39.6652 27.948C37.4332 29.724 34.9492 30.612 32.2132 30.612C29.1172 30.612 26.7412 29.7 25.0852 27.876C23.4292 26.052 22.6012 23.604 22.6012 20.532C22.6012 18.588 22.9492 16.848 23.6452 15.312C24.3412 13.752 25.3612 12.528 26.7052 11.64C28.0492 10.728 29.6572 10.272 31.5292 10.272C34.2892 10.272 36.4492 11.136 38.0092 12.864C39.5692 14.592 40.3492 16.992 40.3492 20.064ZM34.7692 18.444C34.7212 15.516 33.6892 14.052 31.6732 14.052C30.6892 14.052 29.9212 14.412 29.3692 15.132C28.8412 15.852 28.5172 17.04 28.3972 18.696H34.7692V18.444Z" fill="#001426"/>
<path d="M54.7405 10.272C56.3965 10.272 57.6925 10.776 58.6285 11.784C59.5645 12.792 60.0325 14.208 60.0325 16.032V30H54.3445V17.004C54.3445 16.044 54.1885 15.384 53.8765 15.024C53.5885 14.64 53.1445 14.448 52.5445 14.448C51.3925 14.448 50.2885 15.276 49.2325 16.932V30H43.5445V10.884H48.5125L48.9085 13.152C49.7245 12.192 50.6005 11.472 51.5365 10.992C52.4965 10.512 53.5645 10.272 54.7405 10.272Z" fill="#001426"/>
<path d="M70.0098 10.884V30H64.3218V10.884H70.0098ZM67.1298 0.803955C68.1138 0.803955 68.9178 1.11596 69.5418 1.73996C70.1898 2.33996 70.5138 3.10796 70.5138 4.04396C70.5138 4.97996 70.1898 5.75996 69.5418 6.38396C68.9178 6.98396 68.1138 7.28396 67.1298 7.28396C66.1458 7.28396 65.3418 6.98396 64.7178 6.38396C64.0938 5.75996 63.7818 4.97996 63.7818 4.04396C63.7818 3.10796 64.0938 2.33996 64.7178 1.73996C65.3418 1.11596 66.1458 0.803955 67.1298 0.803955Z" fill="#001426"/>
<path d="M81.214 10.272C82.582 10.272 83.866 10.476 85.066 10.884C86.266 11.292 87.322 11.868 88.234 12.612L86.146 15.816C84.586 14.832 83.014 14.34 81.43 14.34C80.686 14.34 80.11 14.472 79.702 14.736C79.318 14.976 79.126 15.324 79.126 15.78C79.126 16.14 79.21 16.44 79.378 16.68C79.57 16.896 79.942 17.124 80.494 17.364C81.046 17.604 81.898 17.892 83.05 18.228C85.042 18.804 86.518 19.56 87.478 20.496C88.462 21.408 88.954 22.68 88.954 24.312C88.954 25.608 88.582 26.736 87.838 27.696C87.094 28.632 86.074 29.352 84.778 29.856C83.482 30.36 82.042 30.612 80.458 30.612C78.85 30.612 77.35 30.36 75.958 29.856C74.59 29.352 73.426 28.656 72.466 27.768L75.238 24.672C76.846 25.92 78.538 26.544 80.314 26.544C81.178 26.544 81.85 26.388 82.33 26.076C82.834 25.764 83.086 25.32 83.086 24.744C83.086 24.288 82.99 23.928 82.798 23.664C82.606 23.4 82.234 23.16 81.682 22.944C81.13 22.704 80.254 22.416 79.054 22.08C77.158 21.528 75.742 20.76 74.806 19.776C73.87 18.792 73.402 17.568 73.402 16.104C73.402 15 73.714 14.016 74.338 13.152C74.986 12.264 75.898 11.568 77.074 11.064C78.274 10.536 79.654 10.272 81.214 10.272Z" fill="#001426"/>
<path d="M100.535 30V5.05196H115.403L114.791 9.26396H106.439V15.888H113.711V20.1H106.439V30H100.535Z" fill="#001426"/>
<path d="M124.985 10.272C127.913 10.272 130.205 11.172 131.861 12.972C133.517 14.748 134.345 17.244 134.345 20.46C134.345 22.5 133.961 24.288 133.193 25.824C132.449 27.336 131.369 28.512 129.953 29.352C128.561 30.192 126.905 30.612 124.985 30.612C122.081 30.612 119.789 29.724 118.109 27.948C116.453 26.148 115.625 23.64 115.625 20.424C115.625 18.384 115.997 16.608 116.741 15.096C117.509 13.56 118.589 12.372 119.981 11.532C121.397 10.692 123.065 10.272 124.985 10.272ZM124.985 14.448C123.833 14.448 122.969 14.94 122.393 15.924C121.817 16.884 121.529 18.384 121.529 20.424C121.529 22.512 121.805 24.036 122.357 24.996C122.933 25.956 123.809 26.436 124.985 26.436C126.137 26.436 127.001 25.956 127.577 24.996C128.153 24.012 128.441 22.5 128.441 20.46C128.441 18.372 128.153 16.848 127.577 15.888C127.025 14.928 126.161 14.448 124.985 14.448Z" fill="#001426"/>
<path d="M148.924 10.272C150.58 10.272 151.876 10.776 152.812 11.784C153.748 12.792 154.216 14.208 154.216 16.032V30H148.528V17.004C148.528 16.044 148.372 15.384 148.06 15.024C147.772 14.64 147.328 14.448 146.728 14.448C145.576 14.448 144.472 15.276 143.416 16.932V30H137.728V10.884H142.696L143.092 13.152C143.908 12.192 144.784 11.472 145.72 10.992C146.68 10.512 147.748 10.272 148.924 10.272Z" fill="#001426"/>
<path d="M165.237 10.272C166.605 10.272 167.889 10.476 169.089 10.884C170.289 11.292 171.345 11.868 172.257 12.612L170.169 15.816C168.609 14.832 167.037 14.34 165.453 14.34C164.709 14.34 164.133 14.472 163.725 14.736C163.341 14.976 163.149 15.324 163.149 15.78C163.149 16.14 163.233 16.44 163.401 16.68C163.593 16.896 163.965 17.124 164.517 17.364C165.069 17.604 165.921 17.892 167.073 18.228C169.065 18.804 170.541 19.56 171.501 20.496C172.485 21.408 172.977 22.68 172.977 24.312C172.977 25.608 172.605 26.736 171.861 27.696C171.117 28.632 170.097 29.352 168.801 29.856C167.505 30.36 166.065 30.612 164.481 30.612C162.873 30.612 161.373 30.36 159.981 29.856C158.613 29.352 157.449 28.656 156.489 27.768L159.261 24.672C160.869 25.92 162.561 26.544 164.337 26.544C165.201 26.544 165.873 26.388 166.353 26.076C166.857 25.764 167.109 25.32 167.109 24.744C167.109 24.288 167.013 23.928 166.821 23.664C166.629 23.4 166.257 23.16 165.705 22.944C165.153 22.704 164.277 22.416 163.077 22.08C161.181 21.528 159.765 20.76 158.829 19.776C157.893 18.792 157.425 17.568 157.425 16.104C157.425 15 157.737 14.016 158.361 13.152C159.009 12.264 159.921 11.568 161.097 11.064C162.297 10.536 163.677 10.272 165.237 10.272Z" fill="#001426"/>
<path d="M192.576 20.064C192.576 20.856 192.54 21.54 192.468 22.116H180.624C180.816 23.724 181.272 24.852 181.992 25.5C182.712 26.148 183.708 26.472 184.98 26.472C185.748 26.472 186.492 26.34 187.212 26.076C187.932 25.788 188.712 25.356 189.552 24.78L191.892 27.948C189.66 29.724 187.176 30.612 184.44 30.612C181.344 30.612 178.968 29.7 177.312 27.876C175.656 26.052 174.828 23.604 174.828 20.532C174.828 18.588 175.176 16.848 175.872 15.312C176.568 13.752 177.588 12.528 178.932 11.64C180.276 10.728 181.884 10.272 183.756 10.272C186.516 10.272 188.676 11.136 190.236 12.864C191.796 14.592 192.576 16.992 192.576 20.064ZM186.996 18.444C186.948 15.516 185.916 14.052 183.9 14.052C182.916 14.052 182.148 14.412 181.596 15.132C181.068 15.852 180.744 17.04 180.624 18.696H186.996V18.444Z" fill="#001426"/>
<path d="M204.051 10.272C205.371 10.272 206.559 10.464 207.615 10.848C208.671 11.232 209.667 11.82 210.603 12.612L208.155 15.996C206.955 15.084 205.743 14.628 204.519 14.628C203.247 14.628 202.287 15.096 201.639 16.032C200.991 16.968 200.667 18.48 200.667 20.568C200.667 22.584 200.991 24.012 201.639 24.852C202.287 25.692 203.223 26.112 204.447 26.112C205.095 26.112 205.683 26.016 206.211 25.824C206.739 25.608 207.375 25.272 208.119 24.816L210.603 28.344C208.707 29.856 206.559 30.612 204.159 30.612C202.215 30.612 200.535 30.204 199.119 29.388C197.703 28.548 196.611 27.384 195.843 25.896C195.075 24.384 194.691 22.62 194.691 20.604C194.691 18.588 195.075 16.8 195.843 15.24C196.611 13.68 197.703 12.468 199.119 11.604C200.535 10.716 202.179 10.272 204.051 10.272Z" fill="#001426"/>
<path d="M227.838 24.456C227.838 25.176 227.934 25.704 228.126 26.04C228.342 26.376 228.678 26.628 229.134 26.796L227.946 30.504C226.77 30.408 225.81 30.156 225.066 29.748C224.322 29.316 223.746 28.644 223.338 27.732C222.09 29.652 220.17 30.612 217.578 30.612C215.682 30.612 214.17 30.06 213.042 28.956C211.914 27.852 211.35 26.412 211.35 24.636C211.35 22.548 212.118 20.952 213.654 19.848C215.19 18.744 217.41 18.192 220.314 18.192H222.258V17.364C222.258 16.236 222.018 15.468 221.538 15.06C221.058 14.628 220.218 14.412 219.018 14.412C218.394 14.412 217.638 14.508 216.75 14.7C215.862 14.868 214.95 15.108 214.014 15.42L212.718 11.676C213.918 11.22 215.142 10.872 216.39 10.632C217.662 10.392 218.838 10.272 219.918 10.272C222.654 10.272 224.658 10.836 225.93 11.964C227.202 13.092 227.838 14.784 227.838 17.04V24.456ZM219.234 26.544C220.53 26.544 221.538 25.932 222.258 24.708V21.324H220.854C219.558 21.324 218.586 21.552 217.938 22.008C217.314 22.464 217.002 23.172 217.002 24.132C217.002 24.9 217.194 25.5 217.578 25.932C217.986 26.34 218.538 26.544 219.234 26.544Z" fill="#001426"/>
<path d="M844.26 14.192C844.26 13.964 844.344 13.778 844.512 13.634C844.68 13.478 844.884 13.4 845.124 13.4H853.098C853.098 13.904 852.996 14.276 852.792 14.516C852.588 14.756 852.27 14.876 851.838 14.876H845.952V18.908H850.992C850.992 19.412 850.89 19.784 850.686 20.024C850.482 20.264 850.17 20.384 849.75 20.384H845.952V24.524H852.216C852.636 24.524 852.948 24.644 853.152 24.884C853.356 25.124 853.458 25.496 853.458 26H845.124C844.884 26 844.68 25.928 844.512 25.784C844.344 25.628 844.26 25.436 844.26 25.208V14.192Z" fill="#001426"/>
<path d="M855.223 26.162C855.067 26.162 854.899 26.132 854.719 26.072C854.539 26.024 854.389 25.94 854.269 25.82L857.581 21.266L854.647 17.108C854.743 17.024 854.875 16.958 855.043 16.91C855.223 16.862 855.385 16.838 855.529 16.838C855.985 16.838 856.321 17 856.537 17.324L858.409 20.114L858.067 20.6L858.157 20.672L860.443 17.324C860.551 17.168 860.695 17.048 860.875 16.964C861.067 16.88 861.271 16.838 861.487 16.838C861.631 16.838 861.787 16.862 861.955 16.91C862.123 16.958 862.255 17.024 862.351 17.108L859.399 21.266L862.693 25.82C862.585 25.94 862.447 26.024 862.279 26.072C862.123 26.132 861.973 26.162 861.829 26.162C861.637 26.162 861.445 26.12 861.253 26.036C861.061 25.964 860.923 25.862 860.839 25.73L858.481 22.292L856.141 25.73C856.045 25.874 855.913 25.982 855.745 26.054C855.577 26.126 855.403 26.162 855.223 26.162Z" fill="#001426"/>
<path d="M864.299 18.116C864.299 17.72 864.419 17.408 864.659 17.18C864.911 16.952 865.289 16.838 865.793 16.838V17.846L865.433 18.314L865.487 18.386C865.859 17.906 866.285 17.528 866.765 17.252C867.245 16.976 867.815 16.838 868.475 16.838C869.507 16.838 870.341 17.126 870.977 17.702C871.613 18.266 871.931 19.022 871.931 19.97V23.048C871.931 23.996 871.601 24.752 870.941 25.316C870.281 25.88 869.423 26.162 868.367 26.162C867.803 26.162 867.281 26.048 866.801 25.82C866.333 25.58 865.919 25.268 865.559 24.884L865.505 24.974C865.589 25.094 865.715 25.226 865.883 25.37V28.538C865.883 29.354 865.355 29.762 864.299 29.762V18.116ZM868.133 24.776C868.841 24.776 869.393 24.62 869.789 24.308C870.185 23.984 870.383 23.54 870.383 22.976V20.042C870.383 19.454 870.185 19.004 869.789 18.692C869.393 18.38 868.835 18.224 868.115 18.224C867.479 18.224 866.945 18.392 866.513 18.728C866.081 19.052 865.865 19.46 865.865 19.952V23.066C865.865 23.546 866.069 23.954 866.477 24.29C866.885 24.614 867.437 24.776 868.133 24.776Z" fill="#001426"/>
<path d="M877.884 26.162C877.152 26.162 876.498 26.024 875.922 25.748C875.346 25.46 874.896 25.07 874.572 24.578C874.248 24.074 874.086 23.51 874.086 22.886V20.222C874.086 19.586 874.254 19.01 874.59 18.494C874.938 17.978 875.4 17.576 875.976 17.288C876.564 16.988 877.2 16.838 877.884 16.838C878.568 16.838 879.192 16.982 879.756 17.27C880.332 17.558 880.782 17.954 881.106 18.458C881.442 18.962 881.61 19.532 881.61 20.168V21.32C881.61 21.512 881.538 21.674 881.394 21.806C881.25 21.938 881.076 22.004 880.872 22.004H875.616V22.814C875.616 23.426 875.808 23.918 876.192 24.29C876.588 24.662 877.152 24.848 877.884 24.848C878.616 24.848 879.174 24.686 879.558 24.362C879.942 24.038 880.134 23.6 880.134 23.048C880.494 23.024 880.794 23.096 881.034 23.264C881.286 23.42 881.412 23.654 881.412 23.966C881.412 24.35 881.244 24.71 880.908 25.046C880.584 25.382 880.152 25.652 879.612 25.856C879.072 26.06 878.496 26.162 877.884 26.162ZM880.152 20.78V20.168C880.152 19.568 879.942 19.082 879.522 18.71C879.114 18.326 878.568 18.134 877.884 18.134C877.2 18.134 876.648 18.326 876.228 18.71C875.82 19.082 875.616 19.568 875.616 20.168V20.78H880.152Z" fill="#001426"/>
<path d="M887.594 18.224C886.922 18.224 886.364 18.428 885.92 18.836C885.476 19.232 885.254 19.718 885.254 20.294V25.01C885.254 25.406 885.122 25.7 884.858 25.892C884.606 26.072 884.216 26.162 883.688 26.162V18.17C883.688 17.282 884.192 16.838 885.2 16.838V17.936C885.008 18.14 884.876 18.32 884.804 18.476L884.876 18.548C885.644 17.408 886.604 16.838 887.756 16.838C888.188 16.838 888.518 16.946 888.746 17.162C888.974 17.366 889.088 17.618 889.088 17.918C889.088 18.134 889.034 18.326 888.926 18.494C888.59 18.314 888.146 18.224 887.594 18.224Z" fill="#001426"/>
<path d="M891.714 15.488C891.378 15.488 891.096 15.38 890.868 15.164C890.64 14.948 890.526 14.678 890.526 14.354C890.526 14.03 890.64 13.766 890.868 13.562C891.096 13.346 891.378 13.238 891.714 13.238C892.038 13.238 892.314 13.346 892.542 13.562C892.77 13.766 892.884 14.03 892.884 14.354C892.884 14.678 892.77 14.948 892.542 15.164C892.314 15.38 892.038 15.488 891.714 15.488ZM890.922 17.99C890.922 17.594 891.048 17.306 891.3 17.126C891.564 16.934 891.96 16.838 892.488 16.838V25.01C892.488 25.406 892.356 25.7 892.092 25.892C891.84 26.072 891.45 26.162 890.922 26.162V17.99Z" fill="#001426"/>
<path d="M899.03 26.162C898.298 26.162 897.644 26.024 897.068 25.748C896.492 25.46 896.042 25.07 895.718 24.578C895.394 24.074 895.232 23.51 895.232 22.886V20.222C895.232 19.586 895.4 19.01 895.736 18.494C896.084 17.978 896.546 17.576 897.122 17.288C897.71 16.988 898.346 16.838 899.03 16.838C899.714 16.838 900.338 16.982 900.902 17.27C901.478 17.558 901.928 17.954 902.252 18.458C902.588 18.962 902.756 19.532 902.756 20.168V21.32C902.756 21.512 902.684 21.674 902.54 21.806C902.396 21.938 902.222 22.004 902.018 22.004H896.762V22.814C896.762 23.426 896.954 23.918 897.338 24.29C897.734 24.662 898.298 24.848 899.03 24.848C899.762 24.848 900.32 24.686 900.704 24.362C901.088 24.038 901.28 23.6 901.28 23.048C901.64 23.024 901.94 23.096 902.18 23.264C902.432 23.42 902.558 23.654 902.558 23.966C902.558 24.35 902.39 24.71 902.054 25.046C901.73 25.382 901.298 25.652 900.758 25.856C900.218 26.06 899.642 26.162 899.03 26.162ZM901.298 20.78V20.168C901.298 19.568 901.088 19.082 900.668 18.71C900.26 18.326 899.714 18.134 899.03 18.134C898.346 18.134 897.794 18.326 897.374 18.71C896.966 19.082 896.762 19.568 896.762 20.168V20.78H901.298ZM897.68 15.542C897.596 15.638 897.488 15.716 897.356 15.776C897.224 15.824 897.086 15.848 896.942 15.848C896.75 15.848 896.57 15.812 896.402 15.74C896.246 15.656 896.114 15.542 896.006 15.398L898.544 12.752C898.676 12.596 898.85 12.518 899.066 12.518C899.282 12.518 899.456 12.596 899.588 12.752L902.126 15.398C902.018 15.542 901.88 15.656 901.712 15.74C901.556 15.812 901.382 15.848 901.19 15.848C901.046 15.848 900.908 15.824 900.776 15.776C900.644 15.716 900.536 15.638 900.452 15.542L899.066 13.886L897.68 15.542Z" fill="#001426"/>
<path d="M904.834 18.17C904.834 17.282 905.338 16.838 906.346 16.838V17.99C906.238 18.098 906.112 18.26 905.968 18.476L906.04 18.548C906.4 18.044 906.868 17.636 907.444 17.324C908.02 17 908.644 16.838 909.316 16.838C910.288 16.838 911.056 17.126 911.62 17.702C912.184 18.278 912.466 19.022 912.466 19.934V25.01C912.466 25.406 912.334 25.7 912.07 25.892C911.818 26.072 911.428 26.162 910.9 26.162V20.096C910.9 19.52 910.738 19.064 910.414 18.728C910.09 18.392 909.598 18.224 908.938 18.224C908.494 18.224 908.074 18.32 907.678 18.512C907.294 18.692 906.982 18.944 906.742 19.268C906.514 19.58 906.4 19.922 906.4 20.294V25.01C906.4 25.406 906.268 25.7 906.004 25.892C905.752 26.072 905.362 26.162 904.834 26.162V18.17Z" fill="#001426"/>
<path d="M918.401 26.162C917.669 26.162 917.015 26.03 916.439 25.766C915.863 25.502 915.413 25.13 915.089 24.65C914.777 24.17 914.621 23.624 914.621 23.012V20.096C914.621 19.46 914.777 18.896 915.089 18.404C915.413 17.912 915.857 17.528 916.421 17.252C916.985 16.976 917.633 16.838 918.365 16.838C919.049 16.838 919.655 16.94 920.183 17.144C920.723 17.336 921.143 17.612 921.443 17.972C921.743 18.332 921.893 18.74 921.893 19.196C921.893 19.496 921.773 19.742 921.533 19.934C921.305 20.114 921.005 20.192 920.633 20.168C920.633 19.592 920.423 19.124 920.003 18.764C919.595 18.404 919.061 18.224 918.401 18.224C917.741 18.224 917.207 18.404 916.799 18.764C916.391 19.112 916.187 19.568 916.187 20.132V22.94C916.187 23.48 916.397 23.924 916.817 24.272C917.237 24.608 917.777 24.776 918.437 24.776C919.097 24.776 919.631 24.596 920.039 24.236C920.459 23.876 920.669 23.414 920.669 22.85C921.053 22.826 921.359 22.904 921.587 23.084C921.827 23.252 921.947 23.492 921.947 23.804C921.947 24.26 921.797 24.668 921.497 25.028C921.197 25.388 920.777 25.67 920.237 25.874C919.697 26.066 919.085 26.162 918.401 26.162Z" fill="#001426"/>
<path d="M925.2 15.488C924.864 15.488 924.582 15.38 924.354 15.164C924.126 14.948 924.012 14.678 924.012 14.354C924.012 14.03 924.126 13.766 924.354 13.562C924.582 13.346 924.864 13.238 925.2 13.238C925.524 13.238 925.8 13.346 926.028 13.562C926.256 13.766 926.37 14.03 926.37 14.354C926.37 14.678 926.256 14.948 926.028 15.164C925.8 15.38 925.524 15.488 925.2 15.488ZM924.408 17.99C924.408 17.594 924.534 17.306 924.786 17.126C925.05 16.934 925.446 16.838 925.974 16.838V25.01C925.974 25.406 925.842 25.7 925.578 25.892C925.326 26.072 924.936 26.162 924.408 26.162V17.99Z" fill="#001426"/>
<path d="M931.887 26.162C930.855 26.162 930.021 25.886 929.385 25.334C928.761 24.782 928.449 24.056 928.449 23.156C928.449 22.244 928.779 21.512 929.439 20.96C930.099 20.396 930.969 20.114 932.049 20.114C933.201 20.114 934.149 20.522 934.893 21.338L934.965 21.266C934.833 21.122 934.683 20.972 934.515 20.816V20.06C934.515 19.448 934.323 18.974 933.939 18.638C933.555 18.302 933.009 18.134 932.301 18.134C931.041 18.134 930.141 18.632 929.601 19.628C929.409 19.532 929.247 19.406 929.115 19.25C928.995 19.082 928.935 18.914 928.935 18.746C928.935 18.422 929.097 18.116 929.421 17.828C929.745 17.528 930.171 17.288 930.699 17.108C931.239 16.928 931.803 16.838 932.391 16.838C933.531 16.838 934.425 17.12 935.073 17.684C935.733 18.248 936.063 19.028 936.063 20.024V24.956C936.063 25.376 935.943 25.682 935.703 25.874C935.463 26.066 935.085 26.162 934.569 26.162V25.316C934.821 25.052 934.959 24.896 934.983 24.848L934.911 24.776C934.131 25.7 933.123 26.162 931.887 26.162ZM932.157 24.92C932.901 24.92 933.483 24.764 933.903 24.452C934.335 24.14 934.551 23.708 934.551 23.156C934.551 22.604 934.341 22.166 933.921 21.842C933.501 21.518 932.925 21.356 932.193 21.356C931.509 21.356 930.969 21.518 930.573 21.842C930.189 22.154 929.997 22.592 929.997 23.156C929.997 23.72 930.183 24.158 930.555 24.47C930.939 24.77 931.473 24.92 932.157 24.92Z" fill="#001426"/>
<path d="M979.8 25V12.598H986.388L986.19 13.966H981.51V18.196H985.56V19.546H981.51V25H979.8Z" fill="#001426"/>
<path d="M991.483 15.298C992.815 15.298 993.847 15.742 994.579 16.63C995.323 17.518 995.695 18.724 995.695 20.248C995.695 21.232 995.527 22.102 995.191 22.858C994.855 23.602 994.369 24.184 993.733 24.604C993.097 25.012 992.341 25.216 991.465 25.216C990.133 25.216 989.095 24.772 988.351 23.884C987.607 22.996 987.235 21.79 987.235 20.266C987.235 19.282 987.403 18.418 987.739 17.674C988.075 16.918 988.561 16.336 989.197 15.928C989.833 15.508 990.595 15.298 991.483 15.298ZM991.483 16.63C989.839 16.63 989.017 17.842 989.017 20.266C989.017 22.678 989.833 23.884 991.465 23.884C993.097 23.884 993.913 22.672 993.913 20.248C993.913 17.836 993.103 16.63 991.483 16.63Z" fill="#001426"/>
<path d="M1002.55 15.298C1002.89 15.298 1003.2 15.334 1003.49 15.406L1003.18 17.026C1002.89 16.954 1002.62 16.918 1002.35 16.918C1001.77 16.918 1001.29 17.134 1000.93 17.566C1000.57 17.998 1000.29 18.67 1000.09 19.582V25H998.431V15.514H999.853L1000.01 17.44C1000.27 16.732 1000.61 16.198 1001.04 15.838C1001.47 15.478 1001.98 15.298 1002.55 15.298Z" fill="#001426"/>
<path d="M1014.9 15.298C1015.68 15.298 1016.3 15.562 1016.77 16.09C1017.24 16.606 1017.47 17.308 1017.47 18.196V25H1015.81V18.43C1015.81 17.206 1015.37 16.594 1014.48 16.594C1014.01 16.594 1013.62 16.732 1013.29 17.008C1012.97 17.272 1012.62 17.692 1012.25 18.268V25H1010.59V18.43C1010.59 17.206 1010.15 16.594 1009.26 16.594C1008.78 16.594 1008.38 16.732 1008.06 17.008C1007.73 17.284 1007.39 17.704 1007.03 18.268V25H1005.37V15.514H1006.8L1006.94 16.9C1007.65 15.832 1008.56 15.298 1009.68 15.298C1010.26 15.298 1010.76 15.448 1011.17 15.748C1011.59 16.048 1011.89 16.468 1012.07 17.008C1012.44 16.456 1012.85 16.036 1013.29 15.748C1013.75 15.448 1014.28 15.298 1014.9 15.298Z" fill="#001426"/>
<path d="M1027.2 22.786C1027.2 23.17 1027.26 23.458 1027.4 23.65C1027.53 23.83 1027.73 23.968 1027.99 24.064L1027.61 25.216C1027.12 25.156 1026.72 25.018 1026.42 24.802C1026.12 24.586 1025.9 24.25 1025.76 23.794C1025.12 24.742 1024.18 25.216 1022.93 25.216C1022 25.216 1021.26 24.952 1020.72 24.424C1020.18 23.896 1019.91 23.206 1019.91 22.354C1019.91 21.346 1020.27 20.572 1020.99 20.032C1021.72 19.492 1022.75 19.222 1024.08 19.222H1025.54V18.52C1025.54 17.848 1025.38 17.368 1025.06 17.08C1024.73 16.792 1024.23 16.648 1023.56 16.648C1022.87 16.648 1022.01 16.816 1021.01 17.152L1020.59 15.946C1021.77 15.514 1022.86 15.298 1023.87 15.298C1024.98 15.298 1025.82 15.574 1026.37 16.126C1026.92 16.666 1027.2 17.44 1027.2 18.448V22.786ZM1023.31 23.974C1024.26 23.974 1025 23.482 1025.54 22.498V20.32H1024.3C1022.55 20.32 1021.67 20.968 1021.67 22.264C1021.67 22.828 1021.81 23.254 1022.09 23.542C1022.36 23.83 1022.77 23.974 1023.31 23.974Z" fill="#001426"/>
<path d="M1036.95 24.172C1036.2 24.784 1035.36 25.126 1034.43 25.198V26.008C1035.01 26.056 1035.43 26.218 1035.69 26.494C1035.97 26.782 1036.11 27.13 1036.11 27.538C1036.11 28.114 1035.9 28.558 1035.48 28.87C1035.06 29.182 1034.52 29.338 1033.87 29.338C1033.54 29.338 1033.23 29.296 1032.94 29.212C1032.65 29.14 1032.42 29.038 1032.24 28.906L1032.69 27.97C1033.05 28.162 1033.42 28.258 1033.82 28.258C1034.1 28.258 1034.31 28.198 1034.47 28.078C1034.64 27.97 1034.72 27.79 1034.72 27.538C1034.72 27.286 1034.59 27.094 1034.34 26.962C1034.09 26.842 1033.68 26.782 1033.12 26.782L1033.32 25.162C1032.25 24.994 1031.41 24.49 1030.81 23.65C1030.21 22.81 1029.91 21.706 1029.91 20.338C1029.91 19.33 1030.08 18.448 1030.42 17.692C1030.75 16.936 1031.23 16.348 1031.84 15.928C1032.46 15.508 1033.2 15.298 1034.05 15.298C1034.62 15.298 1035.13 15.382 1035.6 15.55C1036.07 15.706 1036.52 15.964 1036.95 16.324L1036.16 17.368C1035.82 17.128 1035.49 16.954 1035.17 16.846C1034.86 16.726 1034.51 16.666 1034.13 16.666C1033.36 16.666 1032.76 16.972 1032.33 17.584C1031.91 18.196 1031.7 19.102 1031.7 20.302C1031.7 21.502 1031.91 22.39 1032.33 22.966C1032.75 23.53 1033.35 23.812 1034.13 23.812C1034.5 23.812 1034.84 23.758 1035.15 23.65C1035.46 23.53 1035.81 23.344 1036.2 23.092L1036.95 24.172Z" fill="#001426"/>
<path d="M1045.41 22.786C1045.41 23.17 1045.47 23.458 1045.61 23.65C1045.74 23.83 1045.94 23.968 1046.2 24.064L1045.82 25.216C1045.33 25.156 1044.93 25.018 1044.63 24.802C1044.33 24.586 1044.11 24.25 1043.97 23.794C1043.33 24.742 1042.39 25.216 1041.14 25.216C1040.21 25.216 1039.47 24.952 1038.93 24.424C1038.39 23.896 1038.12 23.206 1038.12 22.354C1038.12 21.346 1038.48 20.572 1039.2 20.032C1039.93 19.492 1040.96 19.222 1042.29 19.222H1043.75V18.52C1043.75 17.848 1043.59 17.368 1043.27 17.08C1042.94 16.792 1042.44 16.648 1041.77 16.648C1041.08 16.648 1040.22 16.816 1039.22 17.152L1038.8 15.946C1039.98 15.514 1041.07 15.298 1042.08 15.298C1043.19 15.298 1044.03 15.574 1044.58 16.126C1045.13 16.666 1045.41 17.44 1045.41 18.448V22.786ZM1041.52 23.974C1042.47 23.974 1043.21 23.482 1043.75 22.498V20.32H1042.51C1040.76 20.32 1039.88 20.968 1039.88 22.264C1039.88 22.828 1040.02 23.254 1040.3 23.542C1040.57 23.83 1040.98 23.974 1041.52 23.974ZM1043.05 13.192C1042.82 13.192 1042.61 13.15 1042.42 13.066C1042.24 12.982 1042.04 12.862 1041.81 12.706C1041.63 12.574 1041.47 12.478 1041.34 12.418C1041.22 12.358 1041.09 12.328 1040.96 12.328C1040.77 12.328 1040.6 12.394 1040.46 12.526C1040.31 12.658 1040.16 12.868 1040.01 13.156L1039 12.652C1039.23 12.172 1039.5 11.788 1039.83 11.5C1040.16 11.212 1040.54 11.068 1040.96 11.068C1041.21 11.068 1041.43 11.116 1041.61 11.212C1041.79 11.296 1041.99 11.416 1042.22 11.572C1042.26 11.596 1042.33 11.644 1042.44 11.716C1042.56 11.788 1042.67 11.842 1042.76 11.878C1042.86 11.914 1042.95 11.932 1043.05 11.932C1043.23 11.932 1043.39 11.872 1043.54 11.752C1043.68 11.62 1043.84 11.416 1044 11.14L1045.01 11.644C1044.78 12.148 1044.5 12.532 1044.17 12.796C1043.83 13.06 1043.46 13.192 1043.05 13.192Z" fill="#001426"/>
<path d="M1052.37 15.298C1053.71 15.298 1054.74 15.742 1055.47 16.63C1056.21 17.518 1056.59 18.724 1056.59 20.248C1056.59 21.232 1056.42 22.102 1056.08 22.858C1055.75 23.602 1055.26 24.184 1054.62 24.604C1053.99 25.012 1053.23 25.216 1052.36 25.216C1051.02 25.216 1049.99 24.772 1049.24 23.884C1048.5 22.996 1048.13 21.79 1048.13 20.266C1048.13 19.282 1048.29 18.418 1048.63 17.674C1048.97 16.918 1049.45 16.336 1050.09 15.928C1050.72 15.508 1051.49 15.298 1052.37 15.298ZM1052.37 16.63C1050.73 16.63 1049.91 17.842 1049.91 20.266C1049.91 22.678 1050.72 23.884 1052.36 23.884C1053.99 23.884 1054.8 22.672 1054.8 20.248C1054.8 17.836 1053.99 16.63 1052.37 16.63Z" fill="#001426"/>
<path d="M1101.14 12.382C1101.88 12.382 1102.51 12.478 1103.01 12.67C1103.53 12.862 1104.05 13.174 1104.58 13.606L1103.64 14.704C1102.88 14.092 1102.09 13.786 1101.25 13.786C1100.21 13.786 1099.38 14.182 1098.74 14.974C1098.12 15.766 1097.81 17.038 1097.81 18.79C1097.81 20.494 1098.12 21.754 1098.74 22.57C1099.37 23.374 1100.2 23.776 1101.23 23.776C1101.76 23.776 1102.22 23.686 1102.61 23.506C1103.01 23.326 1103.43 23.074 1103.87 22.75L1104.72 23.83C1104.34 24.226 1103.84 24.556 1103.24 24.82C1102.64 25.084 1101.95 25.216 1101.17 25.216C1100.17 25.216 1099.27 24.97 1098.47 24.478C1097.69 23.974 1097.08 23.242 1096.64 22.282C1096.21 21.31 1095.99 20.146 1095.99 18.79C1095.99 17.434 1096.22 16.276 1096.67 15.316C1097.13 14.344 1097.75 13.612 1098.53 13.12C1099.31 12.628 1100.18 12.382 1101.14 12.382Z" fill="#001426"/>
<path d="M1109.99 15.298C1111.33 15.298 1112.36 15.742 1113.09 16.63C1113.83 17.518 1114.21 18.724 1114.21 20.248C1114.21 21.232 1114.04 22.102 1113.7 22.858C1113.37 23.602 1112.88 24.184 1112.24 24.604C1111.61 25.012 1110.85 25.216 1109.98 25.216C1108.64 25.216 1107.61 24.772 1106.86 23.884C1106.12 22.996 1105.75 21.79 1105.75 20.266C1105.75 19.282 1105.91 18.418 1106.25 17.674C1106.59 16.918 1107.07 16.336 1107.71 15.928C1108.34 15.508 1109.11 15.298 1109.99 15.298ZM1109.99 16.63C1108.35 16.63 1107.53 17.842 1107.53 20.266C1107.53 22.678 1108.34 23.884 1109.98 23.884C1111.61 23.884 1112.42 22.672 1112.42 20.248C1112.42 17.836 1111.61 16.63 1109.99 16.63Z" fill="#001426"/>
<path d="M1121.41 15.298C1122.27 15.298 1122.94 15.556 1123.42 16.072C1123.91 16.588 1124.16 17.296 1124.16 18.196V25H1122.5V18.43C1122.5 17.758 1122.38 17.284 1122.13 17.008C1121.87 16.732 1121.5 16.594 1121.01 16.594C1120.51 16.594 1120.06 16.738 1119.68 17.026C1119.29 17.314 1118.93 17.728 1118.6 18.268V25H1116.94V15.514H1118.36L1118.51 16.918C1118.84 16.414 1119.26 16.018 1119.75 15.73C1120.25 15.442 1120.81 15.298 1121.41 15.298Z" fill="#001426"/>
<path d="M1132.28 24.568C1131.65 25 1130.95 25.216 1130.15 25.216C1129.35 25.216 1128.72 24.988 1128.26 24.532C1127.82 24.064 1127.6 23.392 1127.6 22.516V16.792H1125.94V15.514H1127.6V13.372L1129.25 13.174V15.514H1131.5L1131.32 16.792H1129.25V22.444C1129.25 22.936 1129.34 23.296 1129.51 23.524C1129.69 23.74 1129.98 23.848 1130.39 23.848C1130.76 23.848 1131.18 23.722 1131.65 23.47L1132.28 24.568Z" fill="#001426"/>
<path d="M1140.26 22.786C1140.26 23.17 1140.33 23.458 1140.46 23.65C1140.59 23.83 1140.79 23.968 1141.05 24.064L1140.67 25.216C1140.18 25.156 1139.79 25.018 1139.49 24.802C1139.19 24.586 1138.96 24.25 1138.82 23.794C1138.18 24.742 1137.24 25.216 1135.99 25.216C1135.06 25.216 1134.32 24.952 1133.78 24.424C1133.24 23.896 1132.97 23.206 1132.97 22.354C1132.97 21.346 1133.33 20.572 1134.05 20.032C1134.78 19.492 1135.81 19.222 1137.15 19.222H1138.6V18.52C1138.6 17.848 1138.44 17.368 1138.12 17.08C1137.79 16.792 1137.3 16.648 1136.62 16.648C1135.93 16.648 1135.08 16.816 1134.07 17.152L1133.65 15.946C1134.83 15.514 1135.92 15.298 1136.93 15.298C1138.05 15.298 1138.88 15.574 1139.43 16.126C1139.98 16.666 1140.26 17.44 1140.26 18.448V22.786ZM1136.37 23.974C1137.32 23.974 1138.06 23.482 1138.6 22.498V20.32H1137.36C1135.61 20.32 1134.73 20.968 1134.73 22.264C1134.73 22.828 1134.87 23.254 1135.15 23.542C1135.42 23.83 1135.83 23.974 1136.37 23.974Z" fill="#001426"/>
<path d="M1148.45 24.568C1147.83 25 1147.12 25.216 1146.33 25.216C1145.52 25.216 1144.89 24.988 1144.44 24.532C1143.99 24.064 1143.77 23.392 1143.77 22.516V16.792H1142.11V15.514H1143.77V13.372L1145.43 13.174V15.514H1147.68L1147.5 16.792H1145.43V22.444C1145.43 22.936 1145.51 23.296 1145.68 23.524C1145.86 23.74 1146.15 23.848 1146.56 23.848C1146.93 23.848 1147.35 23.722 1147.82 23.47L1148.45 24.568Z" fill="#001426"/>
<path d="M1153.47 15.298C1154.8 15.298 1155.83 15.742 1156.56 16.63C1157.31 17.518 1157.68 18.724 1157.68 20.248C1157.68 21.232 1157.51 22.102 1157.17 22.858C1156.84 23.602 1156.35 24.184 1155.72 24.604C1155.08 25.012 1154.32 25.216 1153.45 25.216C1152.12 25.216 1151.08 24.772 1150.33 23.884C1149.59 22.996 1149.22 21.79 1149.22 20.266C1149.22 19.282 1149.39 18.418 1149.72 17.674C1150.06 16.918 1150.54 16.336 1151.18 15.928C1151.82 15.508 1152.58 15.298 1153.47 15.298ZM1153.47 16.63C1151.82 16.63 1151 17.842 1151 20.266C1151 22.678 1151.82 23.884 1153.45 23.884C1155.08 23.884 1155.9 22.672 1155.9 20.248C1155.9 17.836 1155.09 16.63 1153.47 16.63Z" fill="#001426"/>
</svg>
